# xmcd
#
# Track frame offsets: 
#        150
#        20635
#        39652
#        56936
#        72339
#        82860
#        95480
#        112316
#        138053
#        154332
#        168362
#        186203
#        189751
#        205289
#        224295
#        235714
#        246575
#        257697
#        273930
#        297447
#        325886
#
# Disc length: 4666 seconds
#
# Revision: 1
# Processed by: cddbd v1.5.2PL0 Copyright (c) Steve Scherf et al.
# Submitted via: ExactAudioCopy v1.3
#
DISCID=3c123815
DTITLE=Wende - Chante!
DYEAR=2008
DGENRE=Algemeen
TTITLE0=Die begin van die aarde
TTITLE1=Le plat pays
TTITLE2=Vesoul
TTITLE3=Au suivant
TTITLE4=Come Together
TTITLE5=La chanson de Mandalay
TTITLE6=De dame vloert de blues
TTITLE7=De nuttelozen van de nacht
TTITLE8=Dis quand reviendras-tu?
TTITLE9=madre
TTITLE10=De wereld beweegt
TTITLE11=Ravel
TTITLE12=Avec le temps
TTITLE13=La fleur d'Istanbul
TTITLE14=La quête
TTITLE15=Je suis là
TTITLE16=Mens durf te leven
TTITLE17=La vie en rose
TTITLE18=J'arrive
TTITLE19=Chante
TTITLE20=Vertrekkend
EXTD=
EXTT0=
EXTT1=
EXTT2=
EXTT3=
EXTT4=
EXTT5=
EXTT6=
EXTT7=
EXTT8=
EXTT9=
EXTT10=
EXTT11=
EXTT12=
EXTT13=
EXTT14=
EXTT15=
EXTT16=
EXTT17=
EXTT18=
EXTT19=
EXTT20=
PLAYORDER=
